<svg width="36" height="36" viewBox="0 0 36 36" fill="none" xmlns="http://www.w3.org/2000/svg">
<g id="fluent:emoji-hand-20-regular">
<path id="Vector" d="M8.09999 1.8C7.5414 1.79971 6.99647 1.97267 6.5403 2.29505C6.08414 2.61743 5.73918 3.07336 5.55299 3.6H5.39999C4.44521 3.6 3.52953 3.97929 2.8544 4.65442C2.17927 5.32955 1.79999 6.24522 1.79999 7.2V15.8256C1.80033 16.8036 2.02835 17.768 2.46599 18.6426L3.59999 20.9124C3.97371 21.6599 4.54819 22.2885 5.25906 22.7279C5.96993 23.1672 6.7891 23.4 7.62479 23.4H10.9044C12.8484 23.4 14.4864 22.158 15.4368 20.6856C17.0136 18.2552 19.2835 16.354 21.9528 15.228C22.1497 15.144 22.3102 14.9926 22.4056 14.801C22.5009 14.6093 22.5248 14.3899 22.473 14.1822C22.2084 13.122 21.717 12.3588 21.0474 11.8728C20.4532 11.4536 19.7405 11.2354 19.0134 11.25C18.6498 11.25 18.3042 11.2968 18 11.358V7.2C18 6.24522 17.6207 5.32955 16.9456 4.65442C16.2704 3.97929 15.3548 3.6 14.4 3.6H14.247C14.0608 3.07336 13.7158 2.61743 13.2597 2.29505C12.8035 1.97267 12.2586 1.79971 11.7 1.8H8.09999ZM8.09999 3.6H8.99999V11.7C8.99999 11.9387 9.09481 12.1676 9.26359 12.3364C9.43237 12.5052 9.66129 12.6 9.89999 12.6C10.1387 12.6 10.3676 12.5052 10.5364 12.3364C10.7052 12.1676 10.8 11.9387 10.8 11.7V3.6H11.7C11.9387 3.6 12.1676 3.69482 12.3364 3.86361C12.5052 4.03239 12.6 4.26131 12.6 4.5V11.7C12.6 11.9387 12.6948 12.1676 12.8636 12.3364C13.0324 12.5052 13.2613 12.6 13.5 12.6C13.7387 12.6 13.9676 12.5052 14.1364 12.3364C14.3052 12.1676 14.4 11.9387 14.4 11.7V5.4C14.8774 5.4 15.3352 5.58965 15.6728 5.92721C16.0103 6.26478 16.2 6.72261 16.2 7.2V12.6C16.2 12.7531 16.2391 12.9037 16.3135 13.0376C16.388 13.1714 16.4953 13.284 16.6255 13.3647C16.7556 13.4455 16.9042 13.4917 17.0571 13.499C17.2101 13.5063 17.3624 13.4744 17.4996 13.4064L17.5194 13.3974L17.6058 13.3596C17.685 13.3254 17.8038 13.2786 17.9514 13.2336C18.2502 13.1364 18.6318 13.05 19.0134 13.05C19.3896 13.05 19.7208 13.1328 19.9872 13.3272C20.1949 13.4849 20.362 13.6898 20.475 13.9248C17.8036 15.2178 15.538 17.2188 13.9248 19.71C13.1958 20.8404 12.06 21.6 10.9044 21.6H7.62479C7.1231 21.6 6.63134 21.4602 6.20466 21.1963C5.77799 20.9324 5.43327 20.5549 5.20919 20.106L4.07519 17.838C3.76273 17.2132 3.60004 16.5242 3.59999 15.8256V7.2C3.59999 6.72261 3.78963 6.26478 4.1272 5.92721C4.46476 5.58965 4.9226 5.4 5.39999 5.4V11.7C5.39999 11.9387 5.49481 12.1676 5.66359 12.3364C5.83237 12.5052 6.06129 12.6 6.29999 12.6C6.53868 12.6 6.7676 12.5052 6.93638 12.3364C7.10517 12.1676 7.19999 11.9387 7.19999 11.7V4.5C7.19999 4.26131 7.29481 4.03239 7.46359 3.86361C7.63237 3.69482 7.86129 3.6 8.09999 3.6ZM23.8698 12.6936C25.65 12.9423 27.3289 13.6709 28.7265 14.8013C30.1241 15.9317 31.1876 17.4212 31.803 19.11C32.4184 20.7989 32.5625 22.6234 32.2198 24.3879C31.8771 26.1525 31.0606 27.7904 29.8578 29.1261C28.6549 30.4619 27.1112 31.445 25.3921 31.9701C23.673 32.4951 21.8434 32.5424 20.0995 32.1067C18.3556 31.671 16.7632 30.7688 15.4931 29.4969C14.223 28.225 13.323 26.6313 12.8898 24.8868C13.4892 24.6924 14.0472 24.417 14.5548 24.0858C14.954 26.0524 16.0686 27.8009 17.683 28.9929C19.2973 30.1849 21.2965 30.7354 23.2935 30.5381C25.2904 30.3407 27.1431 29.4094 28.4929 27.9245C29.8427 26.4396 30.5935 24.5067 30.6 22.5C30.6 20.663 29.9758 18.8805 28.8299 17.4447C27.6839 16.009 26.0841 15.0052 24.2928 14.598C24.3145 14.3116 24.2902 14.0235 24.2208 13.7448C24.1313 13.3858 24.014 13.0343 23.8698 12.6936ZM19.35 22.5C19.5273 22.5 19.7028 22.4651 19.8666 22.3972C20.0304 22.3294 20.1792 22.23 20.3046 22.1046C20.4299 21.9792 20.5294 21.8304 20.5972 21.6666C20.6651 21.5028 20.7 21.3273 20.7 21.15C20.7 20.9727 20.6651 20.7972 20.5972 20.6334C20.5294 20.4696 20.4299 20.3208 20.3046 20.1954C20.1792 20.07 20.0304 19.9706 19.8666 19.9028C19.7028 19.8349 19.5273 19.8 19.35 19.8C18.9919 19.8 18.6486 19.9422 18.3954 20.1954C18.1422 20.4486 18 20.792 18 21.15C18 21.508 18.1422 21.8514 18.3954 22.1046C18.6486 22.3578 18.9919 22.5 19.35 22.5ZM27 21.15C27 21.508 26.8578 21.8514 26.6046 22.1046C26.3514 22.3578 26.008 22.5 25.65 22.5C25.2919 22.5 24.9486 22.3578 24.6954 22.1046C24.4422 21.8514 24.3 21.508 24.3 21.15C24.3 20.792 24.4422 20.4486 24.6954 20.1954C24.9486 19.9422 25.2919 19.8 25.65 19.8C26.008 19.8 26.3514 19.9422 26.6046 20.1954C26.8578 20.4486 27 20.792 27 21.15ZM19.7046 25.6968C19.6522 25.5902 19.5792 25.495 19.4899 25.4168C19.4005 25.3385 19.2966 25.2787 19.184 25.2408C19.0714 25.2029 18.9525 25.1877 18.834 25.196C18.7155 25.2043 18.5998 25.2359 18.4937 25.2891C18.3875 25.3424 18.2929 25.4161 18.2153 25.506C18.1377 25.596 18.0787 25.7004 18.0417 25.8132C18.0047 25.9261 17.9904 26.0452 17.9996 26.1636C18.0088 26.282 18.0414 26.3974 18.0954 26.5032C18.54 27.3942 19.9854 28.8 22.5 28.8C25.0164 28.8 26.46 27.3942 26.9046 26.5032C26.9586 26.3974 26.9912 26.282 27.0004 26.1636C27.0096 26.0452 26.9953 25.9261 26.9583 25.8132C26.9212 25.7004 26.8623 25.596 26.7847 25.506C26.7071 25.4161 26.6125 25.3424 26.5063 25.2891C26.4001 25.2359 26.2845 25.2043 26.166 25.196C26.0475 25.1877 25.9285 25.2029 25.816 25.2408C25.7034 25.2787 25.5994 25.3385 25.5101 25.4168C25.4207 25.495 25.3478 25.5902 25.2954 25.6968C25.1406 26.0064 24.3054 27 22.5 27C20.6964 27 19.8594 26.0064 19.7046 25.6968Z" fill="#1A1A1A"/>
</g>
</svg>
