<svg width="24" height="25" viewBox="0 0 24 25" fill="none" xmlns="http://www.w3.org/2000/svg">
<g id="simple-icons:ubereats">
<path id="Vector" d="M0 3.36501V8.36201C0 10.245 1.332 11.492 3.084 11.492C3.48294 11.498 3.87899 11.4234 4.24842 11.2727C4.61785 11.122 4.95307 10.8983 5.234 10.615V11.358H6.445V3.36401H5.223V8.29801C5.223 9.56301 4.353 10.418 3.228 10.42C2.089 10.418 1.231 9.58601 1.231 8.29801V3.36501H0ZM7.363 3.36501V11.358H8.525V10.626C8.80314 10.9041 9.13337 11.1246 9.49679 11.2749C9.86022 11.4252 10.2497 11.5024 10.643 11.502C11.0492 11.5124 11.4533 11.4414 11.8316 11.2932C12.2099 11.1449 12.5547 10.9225 12.8457 10.6389C13.1367 10.3553 13.3679 10.0163 13.5258 9.6419C13.6837 9.26752 13.765 8.86532 13.765 8.45901C13.765 8.0527 13.6837 7.6505 13.5258 7.27613C13.3679 6.90175 13.1367 6.56277 12.8457 6.27917C12.5547 5.99557 12.2099 5.77309 11.8316 5.62485C11.4533 5.47661 11.0492 5.4056 10.643 5.41601C10.2514 5.41574 9.86355 5.49301 9.50192 5.64336C9.14029 5.79371 8.81201 6.01416 8.536 6.29201V3.36501H7.363ZM17.248 5.42101C16.8499 5.4193 16.4554 5.49627 16.0871 5.6475C15.7188 5.79873 15.384 6.02123 15.102 6.30223C14.82 6.58323 14.5963 6.91719 14.4437 7.28492C14.2911 7.65265 14.2127 8.0469 14.213 8.44501C14.213 10.182 15.586 11.482 17.366 11.482C17.8603 11.4921 18.35 11.3847 18.7947 11.1686C19.2394 10.9525 19.6265 10.6339 19.924 10.239L19.074 9.62101C18.8804 9.89201 18.6237 10.1118 18.3261 10.2613C18.0285 10.4108 17.699 10.4855 17.366 10.479C16.8938 10.4849 16.4353 10.321 16.0737 10.0173C15.7122 9.71356 15.4717 9.29011 15.396 8.82401H20.213V8.44501C20.213 6.71101 18.959 5.42101 17.249 5.42101H17.248ZM23.411 5.48701C23.1349 5.48461 22.863 5.55394 22.6218 5.68822C22.3806 5.82249 22.1784 6.01711 22.035 6.25301V5.53401H20.872V11.358H22.046V8.04601C22.046 7.14401 22.605 6.56201 23.373 6.56201H23.868V5.48901L23.411 5.48701ZM17.208 6.43101C17.6392 6.42515 18.0588 6.57062 18.3939 6.84211C18.729 7.11361 18.9583 7.49395 19.042 7.91701H15.424C15.506 7.50238 15.728 7.1285 16.0528 6.85798C16.3775 6.58747 16.7854 6.43673 17.208 6.43101ZM10.549 6.43701C10.8144 6.43688 11.0772 6.48903 11.3225 6.59047C11.5677 6.69191 11.7906 6.84067 11.9784 7.02824C12.1661 7.21582 12.3151 7.43854 12.4168 7.68369C12.5185 7.92883 12.5709 8.19161 12.571 8.45701C12.5711 8.72241 12.519 8.98524 12.4175 9.23049C12.3161 9.47574 12.1673 9.69861 11.9798 9.88637C11.7922 10.0741 11.5695 10.2231 11.3243 10.3248C11.0792 10.4265 10.8164 10.4789 10.551 10.479C10.0185 10.4746 9.50944 10.2596 9.135 9.88101C8.7597 9.50297 8.54937 8.99171 8.55 8.45901C8.54911 7.92646 8.75907 7.41522 9.134 7.03701C9.50787 6.65792 10.0166 6.44221 10.549 6.43701ZM0 13.487V21.458H5.722V20.091H1.546V18.121H5.61V16.806H1.545V14.851H5.721V13.486L0 13.487ZM14.56 13.897V15.582H13.41V16.92H14.564V20.063C14.564 20.856 15.136 21.484 16.164 21.484H17.807L17.801 20.146H16.66C16.312 20.146 16.088 19.996 16.088 19.682V16.914H17.8V15.582H16.094V13.896L14.56 13.897ZM9.263 15.424C8.85186 15.4229 8.44461 15.5035 8.06489 15.6612C7.68518 15.8188 7.34057 16.0503 7.05111 16.3423C6.76164 16.6343 6.53308 16.9808 6.37871 17.3619C6.22434 17.743 6.14723 18.1509 6.15187 18.562C6.15651 18.9731 6.2428 19.3792 6.40573 19.7567C6.56865 20.1342 6.80497 20.4755 7.10095 20.7609C7.39693 21.0462 7.74667 21.2699 8.12985 21.419C8.51302 21.568 8.92199 21.6394 9.333 21.629C10.0287 21.6362 10.7052 21.4007 11.246 20.963V21.495H12.763V15.582H11.254V16.108C10.7132 15.6633 10.0341 15.4214 9.334 15.424H9.264H9.263ZM21.034 15.431C19.449 15.431 18.334 16.075 18.334 17.317C18.334 18.177 18.947 18.738 20.27 19.012L21.718 19.34C22.288 19.45 22.44 19.599 22.44 19.83C22.44 20.201 22.002 20.433 21.313 20.433C20.437 20.433 19.935 20.243 19.74 19.585H18.207C18.427 20.816 19.364 21.635 21.256 21.635H21.258C23.01 21.635 24 20.816 24 19.682C24 18.876 23.415 18.274 22.191 18.015L20.897 17.755C20.146 17.619 19.909 17.481 19.909 17.209C19.909 16.852 20.27 16.634 20.939 16.634C21.661 16.634 22.191 16.826 22.344 17.481H23.862C23.776 16.252 22.871 15.431 21.034 15.431ZM9.467 16.681C10.477 16.691 11.286 17.518 11.274 18.528C11.2743 18.7667 11.2271 19.003 11.1352 19.2233C11.0433 19.4435 10.9085 19.6433 10.7387 19.811C10.5689 19.9787 10.3674 20.111 10.146 20.2001C9.92456 20.2892 9.68764 20.3333 9.449 20.33C8.96525 20.3276 8.50225 20.1332 8.16187 19.7894C7.82149 19.4457 7.63161 18.9808 7.634 18.497C7.63639 18.0133 7.83085 17.5503 8.1746 17.2099C8.51836 16.8695 8.98324 16.6786 9.467 16.681Z" fill="black"/>
</g>
</svg>
