<svg width="24" height="24" viewBox="0 0 24 24" fill="none" xmlns="http://www.w3.org/2000/svg">
<g id="Line Horizontal 3 / undefined / Glyph: undefined">
<path id="Vector" d="M2.3999 5.4C2.3999 5.06864 2.66853 4.8 2.9999 4.8H20.9999C21.3312 4.8 21.5999 5.06864 21.5999 5.4C21.5999 5.73137 21.3312 6 20.9999 6H2.9999C2.66853 6 2.3999 5.73137 2.3999 5.4ZM2.3999 11.4C2.3999 11.0686 2.66853 10.8 2.9999 10.8H20.9999C21.3312 10.8 21.5999 11.0686 21.5999 11.4C21.5999 11.7314 21.3312 12 20.9999 12H2.9999C2.66853 12 2.3999 11.7314 2.3999 11.4ZM2.9999 16.8C2.66853 16.8 2.3999 17.0687 2.3999 17.4C2.3999 17.7313 2.66853 18 2.9999 18H20.9999C21.3312 18 21.5999 17.7313 21.5999 17.4C21.5999 17.0687 21.3312 16.8 20.9999 16.8H2.9999Z" fill="#1A1A1A"/>
</g>
</svg>
